<?xml version="1.0" encoding="UTF-8"?>
<svg version="1.1" xmlns="http://www.w3.org/2000/svg" width="278" height="287">
<path d="M0 0 C1.08716309 0.00081573 1.08716309 0.00081573 2.19628906 0.00164795 C14.16079666 0.04280723 25.48395796 0.96380089 37 4.375 C37.73025391 4.58930664 38.46050781 4.80361328 39.21289062 5.02441406 C75.07567772 15.91642765 104.79282648 40.56363603 122.859375 73.25756836 C134.31190841 94.75440926 139.2151681 115.96567552 139.35009766 140.18188477 C139.36649465 142.32555114 139.39356286 144.46916668 139.43212891 146.61254883 C140.13433494 185.96967026 125.11748328 220.2272172 98 248.375 C97.35804688 249.08011719 96.71609375 249.78523437 96.0546875 250.51171875 C78.38985073 269.36185842 48.00228884 286.02182933 21.8734436 287.49488831 C16.11285421 287.66620948 10.34873244 287.69251462 4.5859375 287.72509766 C2.47026453 287.7415057 0.35464337 287.76858949 -1.76074219 287.80712891 C-38.67896249 288.47446549 -70.66774451 273.74341012 -97 248.375 C-97.70511719 247.73304688 -98.41023438 247.09109375 -99.13671875 246.4296875 C-116.81863162 229.85961905 -128.27618232 206.13971857 -134.8125 183.125 C-135.0074707 182.44131348 -135.20244141 181.75762695 -135.40332031 181.05322266 C-138.6261224 169.01176546 -139.37652034 157.02269298 -139.3125 144.625 C-139.31034485 143.87321472 -139.3081897 143.12142944 -139.30596924 142.34686279 C-139.25557623 131.39584983 -138.85236932 121.00655837 -136 110.375 C-135.80664062 109.611875 -135.61328125 108.84875 -135.4140625 108.0625 C-125.73228298 70.29160705 -102.09189863 38.29695591 -68.72900391 18.07275391 C-58.48503058 12.08721851 -47.62440273 8.04085088 -36.3125 4.625 C-35.33446411 4.32686401 -35.33446411 4.32686401 -34.33666992 4.02270508 C-23.00689747 0.75258765 -11.73821685 -0.03324037 0 0 Z " fill="#FCE83B" transform="translate(139,-0.375)"/>
<path d="M0 0 C1.08716309 0.00081573 1.08716309 0.00081573 2.19628906 0.00164795 C14.16079666 0.04280723 25.48395796 0.96380089 37 4.375 C37.73025391 4.58930664 38.46050781 4.80361328 39.21289062 5.02441406 C75.07567772 15.91642765 104.79282648 40.56363603 122.859375 73.25756836 C134.31190841 94.75440926 139.2151681 115.96567552 139.35009766 140.18188477 C139.36649465 142.32555114 139.39356286 144.46916668 139.43212891 146.61254883 C140.13433494 185.96967026 125.11748328 220.2272172 98 248.375 C97.35804688 249.08011719 96.71609375 249.78523437 96.0546875 250.51171875 C78.38985073 269.36185842 48.00228884 286.02182933 21.8734436 287.49488831 C16.11285421 287.66620948 10.34873244 287.69251462 4.5859375 287.72509766 C2.47026453 287.7415057 0.35464337 287.76858949 -1.76074219 287.80712891 C-38.67896249 288.47446549 -70.66774451 273.74341012 -97 248.375 C-97.70511719 247.73304688 -98.41023438 247.09109375 -99.13671875 246.4296875 C-116.81863162 229.85961905 -128.27618232 206.13971857 -134.8125 183.125 C-135.0074707 182.44131348 -135.20244141 181.75762695 -135.40332031 181.05322266 C-138.6261224 169.01176546 -139.37652034 157.02269298 -139.3125 144.625 C-139.31034485 143.87321472 -139.3081897 143.12142944 -139.30596924 142.34686279 C-139.25557623 131.39584983 -138.85236932 121.00655837 -136 110.375 C-135.80664062 109.611875 -135.61328125 108.84875 -135.4140625 108.0625 C-125.73228298 70.29160705 -102.09189863 38.29695591 -68.72900391 18.07275391 C-58.48503058 12.08721851 -47.62440273 8.04085088 -36.3125 4.625 C-35.33446411 4.32686401 -35.33446411 4.32686401 -34.33666992 4.02270508 C-23.00689747 0.75258765 -11.73821685 -0.03324037 0 0 Z M-25 11.375 C-25.99515625 11.58125 -26.9903125 11.7875 -28.015625 12 C-63.054245 20.07172398 -91.90938223 42.64269409 -111.0703125 72.61328125 C-114.88772788 78.98390302 -118.19856322 85.49795269 -121 92.375 C-121.24637207 92.97376953 -121.49274414 93.57253906 -121.74658203 94.18945312 C-134.89463682 126.72172988 -133.82384705 166.0362295 -120.203125 198.26025391 C-113.94274733 212.32692358 -105.65152099 225.28050461 -95 236.375 C-93.91176687 237.6834403 -92.82824785 238.99581897 -91.75 240.3125 C-71.34945194 263.52046293 -38.90980817 277.52435925 -8.45947266 279.54345703 C28.54809487 281.22722034 62.32216948 269.44355709 89.75 244.5 C100.50159785 234.40498827 108.6645588 223.08710809 116 210.375 C116.54551514 209.4480835 116.54551514 209.4480835 117.10205078 208.50244141 C127.72098406 190.17044815 132.18934811 169.30070831 132.125 148.3125 C132.12886719 147.07822266 132.13273437 145.84394531 132.13671875 144.57226562 C132.12439277 132.794787 131.98829567 121.14153035 128.75 109.75 C128.52675049 108.94006592 128.30350098 108.13013184 128.07348633 107.2956543 C126.21415691 100.7425801 123.92334258 94.53318887 121 88.375 C120.72317383 87.77123535 120.44634766 87.1674707 120.16113281 86.54541016 C108.44974882 61.09055879 89.85089781 41.04461194 66 26.375 C64.44345703 25.4159375 64.44345703 25.4159375 62.85546875 24.4375 C36.77943646 9.4412709 4.35421751 5.29122435 -25 11.375 Z " fill="#F8E53A" transform="translate(139,-0.375)"/>
<path d="M0 0 C2.47059429 2.18908729 4.89060343 4.42006916 7.29296875 6.68359375 C7.89496094 7.23273437 8.49695313 7.781875 9.1171875 8.34765625 C26.17969007 24.49538596 37.37288798 47.19355145 43.29296875 69.68359375 C43.61201172 70.82441406 43.61201172 70.82441406 43.9375 71.98828125 C48.916265 91.54515674 48.8385742 117.29633598 43.29296875 136.68359375 C42.94720403 138.05157568 42.60356471 139.42009605 42.26171875 140.7890625 C37.26510252 159.97537304 27.15032395 177.66698806 14.29296875 192.68359375 C13.27976563 193.89789063 13.27976563 193.89789063 12.24609375 195.13671875 C-1.02819034 210.5426397 -17.90790554 222.04644893 -36.70703125 229.68359375 C-37.320625 229.94124512 -37.93421875 230.19889648 -38.56640625 230.46435547 C-68.39157815 242.81943293 -103.49549515 241.76925538 -133.20751953 229.75195312 C-145.87282092 224.33845841 -157.25042411 217.65030523 -167.70703125 208.68359375 C-168.48167725 208.02423828 -168.48167725 208.02423828 -169.27197266 207.3515625 C-188.37434177 190.95954498 -201.36463801 170.3108513 -209.70703125 146.68359375 C-209.95364502 145.99048096 -210.20025879 145.29736816 -210.4543457 144.58325195 C-221.82291921 111.75988681 -217.39378779 73.41584727 -202.7578125 42.453125 C-190.94559256 18.72649289 -172.15861953 -0.50744652 -149.70703125 -14.31640625 C-148.66933594 -14.95578125 -147.63164062 -15.59515625 -146.5625 -16.25390625 C-99.81255986 -43.13962279 -40.12803324 -34.33755226 0 0 Z M-140.70703125 -12.31640625 C-141.69960937 -11.79304688 -142.6921875 -11.2696875 -143.71484375 -10.73046875 C-172.97013839 5.53944707 -195.20588427 32.60322697 -204.5546875 64.8125 C-211.10053549 88.73470111 -212.48941565 113.60458062 -205.70703125 137.68359375 C-205.49272461 138.45203613 -205.27841797 139.22047852 -205.05761719 140.01220703 C-198.86746972 161.5245463 -188.1539071 179.52684309 -172.70703125 195.68359375 C-172.10890625 196.34488281 -171.51078125 197.00617188 -170.89453125 197.6875 C-151.11085461 218.7929309 -119.67499597 231.95333632 -90.96484375 232.88671875 C-74.52703596 233.13577644 -59.24734819 231.24999089 -43.70703125 225.68359375 C-42.52882812 225.27496094 -41.350625 224.86632812 -40.13671875 224.4453125 C-14.89566248 215.09189395 5.5810765 196.9366538 20.29296875 174.68359375 C20.8446875 173.87792969 21.39640625 173.07226562 21.96484375 172.2421875 C29.97120341 159.86676599 35.29809813 145.05007708 38.29296875 130.68359375 C38.46957031 129.83716309 38.64617187 128.99073242 38.828125 128.11865234 C40.27978216 120.45498358 40.60310636 112.9840487 40.55371094 105.19287109 C40.54297929 103.18556535 40.55368027 101.17915406 40.56640625 99.171875 C40.54430597 87.9780815 39.06559653 77.50861061 36.04296875 66.74609375 C35.82825928 65.98031006 35.6135498 65.21452637 35.39233398 64.42553711 C33.3710233 57.49688095 30.61257831 51.09358152 27.29296875 44.68359375 C26.81988281 43.74128906 26.34679687 42.79898438 25.859375 41.828125 C20.17233679 30.90099739 12.72248307 21.60979663 4.29296875 12.68359375 C3.20628906 11.48283203 3.20628906 11.48283203 2.09765625 10.2578125 C-19.1017478 -12.2710457 -48.61970826 -23.85642439 -79.11328125 -25.5 C-100.65980804 -25.92790999 -121.53579092 -22.42487842 -140.70703125 -12.31640625 Z " fill="#403E31" transform="translate(224.70703125,40.31640625)"/>
<path d="M0 0 C0.97016556 -0.00860046 1.94033112 -0.01720093 2.93989563 -0.02606201 C4.51886375 -0.03245193 4.51886375 -0.03245193 6.12973022 -0.03897095 C7.24730209 -0.04714844 8.36487396 -0.05532593 9.51631165 -0.06375122 C13.20824653 -0.08853302 16.90014336 -0.10509659 20.59213257 -0.11953735 C21.85254742 -0.12486103 23.11296227 -0.13018471 24.4115715 -0.13566971 C29.70461036 -0.15687492 34.99763593 -0.17600829 40.29070473 -0.1872921 C47.87069063 -0.2035611 55.45016659 -0.23684338 63.02996027 -0.29369295 C69.00739581 -0.33699772 74.98459816 -0.35302952 80.96220016 -0.35942459 C83.50522889 -0.36616133 86.04824946 -0.38144556 88.59117508 -0.4053154 C92.13958453 -0.43674207 95.68668839 -0.4370379 99.23519897 -0.42959595 C100.29189285 -0.44600128 101.34858673 -0.46240662 102.43730164 -0.47930908 C109.4748596 -0.41861419 109.4748596 -0.41861419 112.19366455 2.27340698 C113.17443214 5.56067275 113.51143246 8.3918895 113.62142944 11.82528687 C113.65883853 12.80741842 113.65883853 12.80741842 113.69700336 13.80939102 C113.77669337 15.98388586 113.83660188 18.15847365 113.89682007 20.33358765 C113.95029055 21.88090677 114.00514599 23.42817857 114.06129456 24.97540283 C114.17871005 28.27472676 114.2879532 31.57417556 114.39056396 34.87399292 C114.63323595 42.66146184 114.91589728 50.44751798 115.19714928 58.2336731 C115.26009504 59.98137559 115.32251253 61.72909719 115.38440895 63.47683716 C116.03335795 81.78225233 117.00625909 100.05878826 118.13900757 118.34091187 C118.76694125 128.69533309 119.23094565 139.04638751 119.38510132 149.41952515 C119.41367722 150.43746155 119.44225311 151.45539795 119.47169495 152.50418091 C119.51584906 159.46857396 119.51584906 159.46857396 117.27059937 162.79354858 C115.05307007 164.15390015 115.05307007 164.15390015 111.24057007 164.65390015 C107.88891512 165.30301023 107.14890727 166.01914723 105.11947632 168.87265015 C103.92883822 171.02348027 102.7846397 173.20082749 101.69369507 175.40390015 C99.9034596 178.40467579 99.21620718 178.94350575 96.05307007 180.15390015 C93.74978638 180.39440918 93.74978638 180.39440918 91.19271851 180.38095093 C90.23202454 180.38079987 89.27133057 180.3806488 88.28152466 180.38049316 C87.25222839 180.37017059 86.22293213 180.35984802 85.16244507 180.34921265 C84.1026947 180.34638275 83.04294434 180.34355286 81.95108032 180.34063721 C78.5682951 180.32944749 75.18577519 180.30434485 71.80307007 180.27890015 C69.50880306 180.2688688 67.2145319 180.25974322 64.92025757 180.2515564 C59.2977713 180.22951211 53.67543964 180.19604642 48.05307007 180.15390015 C48.19418875 183.61244229 48.34185316 187.07067705 48.49057007 190.52890015 C48.52988647 191.49440796 48.56920288 192.45991577 48.60971069 193.4546814 C48.88303443 199.72010242 49.37487404 205.91905601 50.05307007 212.15390015 C51.70307007 209.51390015 53.35307007 206.87390015 55.05307007 204.15390015 C60.41378693 204.61339016 60.69982612 205.8006562 65.05307007 210.15390015 C65.38307007 202.23390015 65.71307007 194.31390015 66.05307007 186.15390015 C66.71307007 186.15390015 67.37307007 186.15390015 68.05307007 186.15390015 C68.05307007 189.12390015 68.05307007 192.09390015 68.05307007 195.15390015 C80.92307007 195.15390015 93.79307007 195.15390015 107.05307007 195.15390015 C105.07307007 191.85390015 103.09307007 188.55390015 101.05307007 185.15390015 C100.72307007 183.83390015 100.39307007 182.51390015 100.05307007 181.15390015 C103.82561222 182.4114142 104.22787483 183.64790839 106.17807007 187.02890015 C106.69627319 187.91319702 107.21447632 188.7974939 107.74838257 189.70858765 C109.05307007 192.15390015 109.05307007 192.15390015 110.05307007 195.15390015 C110.71307007 195.15390015 111.37307007 195.15390015 112.05307007 195.15390015 C112.05307007 195.81390015 112.05307007 196.47390015 112.05307007 197.15390015 C97.53307007 197.15390015 83.01307007 197.15390015 68.05307007 197.15390015 C68.05307007 203.42390015 68.05307007 209.69390015 68.05307007 216.15390015 C64.18191812 214.86351616 62.98756394 212.80088831 60.55307007 209.6499939 C59.05214936 207.80080801 59.05214936 207.80080801 56.05307007 208.15390015 C54.46617443 210.15783836 54.46617443 210.15783836 53.05307007 212.65390015 C51.55307007 215.18515015 51.55307007 215.18515015 50.05307007 217.15390015 C49.06307007 217.15390015 48.07307007 217.15390015 47.05307007 217.15390015 C46.87940848 215.69638324 46.71467166 214.23780344 46.55307007 212.77890015 C46.46025757 211.96679077 46.36744507 211.1546814 46.27182007 210.31796265 C46.07781074 207.51175623 46.03139505 204.76725124 46.03939819 201.95614624 C46.04137207 201.05657196 46.04334595 200.15699768 46.04537964 199.23016357 C46.04791748 198.54499664 46.05045532 197.85982971 46.05307007 197.15390015 C45.32945786 197.16056198 44.60584564 197.16722382 43.86030579 197.17408752 C37.01953011 197.23435882 30.17879445 197.27995571 23.33782101 197.30933666 C19.82132009 197.32494993 16.30503976 197.34610779 12.78866577 197.38021851 C8.74006102 197.41924349 4.69168568 197.43364515 0.64291382 197.4468689 C-0.61151016 197.46235275 -1.86593414 197.47783661 -3.15837097 197.49378967 C-10.40828595 197.49518104 -16.19684415 197.42010389 -21.88442993 192.46640015 C-23.55269469 188.83547096 -23.32672943 186.14179491 -22.94692993 182.15390015 C-21.88442993 180.21640015 -21.88442993 180.21640015 -19.94692993 179.15390015 C-14.06261631 178.09429518 -8.17989911 177.8224659 -2.21255493 177.59140015 C-1.10486755 177.54821655 0.00281982 177.50503296 1.14407349 177.46054077 C11.09887384 177.12523799 21.04296593 177.1165932 31.00215149 177.14712524 C36.57865684 177.16084336 42.15519761 177.15284312 47.73171234 177.14706421 C52.53487314 177.14458841 57.33702716 177.15913014 62.13998413 177.20516968 C66.86485626 177.24940763 71.58795101 177.25004546 76.31291962 177.22103882 C78.09430103 177.21797072 79.87578701 177.23073662 81.65692902 177.26010132 C91.13668237 177.77445405 91.13668237 177.77445405 99.46359253 174.18466187 C101.67838595 170.95975798 102.82283174 167.84461513 104.05307007 164.15390015 C90.30926576 164.10744204 76.56548032 164.07196262 62.82161331 164.0502758 C56.43893905 164.03986423 50.05631875 164.02575313 43.67367554 164.00302124 C37.50746891 163.98119906 31.341314 163.96931179 25.17507172 163.96414566 C22.82930437 163.96046669 20.48353967 163.95328282 18.13779449 163.94244003 C14.83768218 163.92780047 11.53778024 163.92592739 8.23764038 163.92684937 C6.80156181 163.91606354 6.80156181 163.91606354 5.33647156 163.90505981 C-5.53662094 163.93766601 -15.49903113 164.70989963 -23.94692993 172.15390015 C-24.60692993 173.14390015 -25.26692993 174.13390015 -25.94692993 175.15390015 C-26.60692993 175.15390015 -27.26692993 175.15390015 -27.94692993 175.15390015 C-26.59420318 170.41935653 -24.04107117 167.72050929 -19.94692993 165.15390015 C-4.63752922 157.54816376 16.04594297 159.86857348 32.52109146 159.95666504 C34.57019612 159.9664822 36.61927293 159.97225895 38.668396 159.97665405 C56.33398666 160.0146788 73.98318627 160.19306322 91.63510132 160.93515015 C96.69573228 161.13382618 101.75078923 161.2226651 106.81478882 161.24765015 C107.51876297 161.25413574 108.22273712 161.26062134 108.94804382 161.26730347 C110.65013831 161.26888471 112.35212425 161.21644174 114.05307007 161.15390015 C116.14733384 159.05963638 115.22460163 154.68405373 115.24325562 151.89682007 C115.21503077 112.55907666 112.73478709 73.23805452 110.57266235 33.97239685 C110.01281166 23.70147193 109.54238269 13.42946526 109.05307007 3.15390015 C73.41307007 2.82390015 37.77307007 2.49390015 1.05307007 2.15390015 C1.05307007 51.65390015 1.05307007 101.15390015 1.05307007 152.15390015 C0.39307007 152.15390015 -0.26692993 152.15390015 -0.94692993 152.15390015 C-0.94692993 102.98390015 -0.94692993 53.81390015 -0.94692993 3.15390015 C-13.32681217 5.04530134 -13.32681217 5.04530134 -21.94692993 12.15390015 C-24.03425867 15.54834191 -24.20502212 18.22378562 -24.22540283 22.17764282 C-24.23656631 23.41160797 -24.2477298 24.64557312 -24.25923157 25.91693115 C-24.26159644 27.28140228 -24.2637721 28.64587375 -24.26577759 30.01034546 C-24.27507725 31.44934655 -24.28524598 32.88834224 -24.29621887 34.32733154 C-24.32352876 38.23191739 -24.33867119 42.13646713 -24.3516469 46.04112339 C-24.36727312 50.12243861 -24.39406496 54.20368006 -24.41967773 58.28494263 C-24.46647454 66.01254575 -24.50321428 73.74016273 -24.53635061 81.46783519 C-24.57456562 90.2658714 -24.62397741 99.06383355 -24.67433476 107.86180735 C-24.77766804 125.95911741 -24.8669239 144.05647268 -24.94692993 162.15390015 C-25.60692993 162.15390015 -26.26692993 162.15390015 -26.94692993 162.15390015 C-27.06378936 142.97806142 -27.15193087 123.80229507 -27.20599079 104.62617397 C-27.23176022 95.72212755 -27.26688649 86.81830251 -27.3241272 77.91439819 C-27.37400096 70.1527296 -27.40623013 62.39122136 -27.41737241 54.62939698 C-27.4238845 50.5203984 -27.43916294 46.41185852 -27.47558022 42.30300713 C-27.50960285 38.43285699 -27.51997051 34.56335304 -27.51246834 30.69306755 C-27.51384012 29.27530909 -27.523736 27.85752827 -27.54295731 26.43989944 C-27.64631068 18.42171871 -27.69075784 13.06182135 -21.94692993 7.15390015 C-19.00942993 5.19296265 -19.00942993 5.19296265 -15.94692993 3.77890015 C-14.93630493 3.29679077 -13.92567993 2.8146814 -12.88442993 2.31796265 C-8.57436088 0.60998315 -4.61878706 0.03065624 0 0 Z " fill="#6C5C43" transform="translate(98.94692993164063,44.846099853515625)"/>
<path d="M0 0 C1.67622185 -0.00472824 1.67622185 -0.00472824 3.38630676 -0.009552 C4.57713364 -0.00752777 5.76796051 -0.00550354 6.99487305 -0.00341797 C8.84304878 -0.00485306 8.84304878 -0.00485306 10.7285614 -0.00631714 C13.32490083 -0.00699623 15.92124198 -0.00516083 18.51757812 -0.00097656 C21.18594671 0.00261632 23.85411448 0.0035682 26.52246094 -0.00097656 C30.36745251 -0.00712363 34.21237886 -0.0064152 38.05737305 -0.00341797 C39.25832108 -0.0054422 40.4592691 -0.00746643 41.6966095 -0.009552 C43.34919014 -0.00482376 43.34919014 -0.00482376 45.03515625 0 C46.00967239 0.00079559 46.98418854 0.00159119 47.98823547 0.00241089 C50.1940918 0.12939453 50.1940918 0.12939453 51.1940918 1.12939453 C51.42890872 3.31232227 51.60772502 5.50142627 51.7565918 7.69189453 C51.84038086 8.88943359 51.92416992 10.08697266 52.01049805 11.32080078 C52.07108398 12.24763672 52.13166992 13.17447266 52.1940918 14.12939453 C44.32708581 14.19898426 36.46015228 14.2522512 28.59291553 14.28483105 C24.93959981 14.30046986 21.28649508 14.32167501 17.63330078 14.35571289 C14.10603964 14.38837078 10.57898112 14.40626097 7.05158043 14.41402626 C5.05464871 14.42224587 3.05779821 14.44565514 1.06098938 14.46928406 C-0.77034294 14.46962395 -0.77034294 14.46962395 -2.63867188 14.4699707 C-3.71122726 14.47663254 -4.78378265 14.48329437 -5.88883972 14.49015808 C-9.23347307 14.07651616 -11.10796148 13.11682679 -13.8059082 11.12939453 C-15.20022324 8.34076446 -15.06250915 6.20860585 -14.8059082 3.12939453 C-10.1527061 0.02725979 -5.4812929 0.00445673 0 0 Z " fill="#FBE73B" transform="translate(92.805908203125,224.87060546875)"/>
<path d="M0 0 C1.67963916 0.03016733 3.35933112 0.05753108 5.0390625 0.08203125 C9.11070438 0.14742494 13.17975255 0.25055687 17.25 0.375 C17.25 0.705 17.25 1.035 17.25 1.375 C9 1.375 0.75 1.375 -7.75 1.375 C-7.75 50.875 -7.75 100.375 -7.75 151.375 C-8.41 151.375 -9.07 151.375 -9.75 151.375 C-9.75 102.205 -9.75 53.035 -9.75 2.375 C-22.12988223 4.26640119 -22.12988223 4.26640119 -30.75 11.375 C-32.83732874 14.76944176 -33.00809219 17.44488547 -33.0284729 21.39874268 C-33.03963638 22.63270782 -33.05079987 23.86667297 -33.06230164 25.13803101 C-33.0646665 26.50250214 -33.06684217 27.86697361 -33.06884766 29.23144531 C-33.07814732 30.6704464 -33.08831605 32.1094421 -33.09928894 33.5484314 C-33.12659883 37.45301724 -33.14174125 41.35756699 -33.15471697 45.26222324 C-33.17034319 49.34353846 -33.19713503 53.42477992 -33.2227478 57.50604248 C-33.26954461 65.2336456 -33.30628435 72.96126259 -33.33942068 80.68893504 C-33.37763569 89.48697126 -33.42704747 98.28493341 -33.47740483 107.0829072 C-33.5807381 125.18021727 -33.66999397 143.27757253 -33.75 161.375 C-34.41 161.375 -35.07 161.375 -35.75 161.375 C-35.86685943 142.19916128 -35.95500094 123.02339493 -36.00906086 103.84727383 C-36.03483028 94.9432274 -36.06995656 86.03940236 -36.12719727 77.13549805 C-36.17707103 69.37382945 -36.20930019 61.61232121 -36.22044247 53.85049683 C-36.22695457 49.74149825 -36.24223301 45.63295838 -36.27865028 41.52410698 C-36.31267292 37.65395684 -36.32304058 33.78445289 -36.31553841 29.9141674 C-36.31691018 28.49640894 -36.32680607 27.07862812 -36.34602737 25.6609993 C-36.44964732 17.622138 -36.4637464 12.32280195 -30.75 6.375 C-21.57595347 -1.037615 -11.09921239 -0.34973737 0 0 Z " fill="#665844" transform="translate(107.75,45.625)"/>
<path d="M0 0 C14.94221808 -0.11674274 29.88440084 -0.20494357 44.82697773 -0.25906086 C51.76493374 -0.28485519 58.70260659 -0.32002845 65.64038086 -0.37719727 C72.33177283 -0.43230961 79.02280939 -0.46139558 85.71443748 -0.47438622 C88.27143176 -0.48364751 90.82840934 -0.50173193 93.3852787 -0.52865028 C96.95813874 -0.56477963 100.52977085 -0.56995186 104.1027832 -0.56762695 C105.69960686 -0.59459152 105.69960686 -0.59459152 107.32868958 -0.62210083 C114.41017697 -0.57201258 114.41017697 -0.57201258 117.14356995 2.07884216 C118.16911743 5.57683484 118.47708393 8.65723736 118.60009766 12.30615234 C118.62819016 13.02405945 118.65628265 13.74196655 118.68522644 14.48162842 C118.77467133 16.84946188 118.84434346 19.21744811 118.9140625 21.5859375 C118.97335039 23.24684219 119.03394953 24.90770053 119.09579468 26.56851196 C119.25555758 30.94522033 119.39890157 35.32231148 119.53839111 39.69970703 C119.70897709 44.9689986 119.89721827 50.23768081 120.08444786 55.50640297 C120.23043524 59.61791498 120.37345369 63.72943928 120.5062561 67.84140015 C120.77954991 76.11458542 121.1972335 84.35293924 121.78009033 92.61080933 C122.08972188 97.38277034 122.22514674 102.14927317 122.31640625 106.9296875 C122.33718735 107.8891629 122.35796844 108.84863831 122.37937927 109.83718872 C122.42209286 111.84178353 122.46319045 113.84641341 122.50268555 115.85107422 C122.56226369 118.8630532 122.62739403 121.87487357 122.69335938 124.88671875 C122.9343288 136.25949626 123.06021169 147.62476948 123 159 C122.67 159 122.34 159 122 159 C120.61090988 141.76143622 119.72508624 124.52980114 119.0625 107.25 C118.11858957 82.65560581 116.838267 58.08410751 115.50520325 33.50811768 C114.95703837 23.34088979 114.4683204 13.17118504 114 3 C113.02900864 2.98969254 112.05801727 2.97938507 111.05760193 2.96876526 C101.75189738 2.86953959 92.4462381 2.76671327 83.14060879 2.66066074 C78.36043887 2.60629072 73.58026283 2.55304302 68.80004883 2.50268555 C45.85453264 2.2600712 22.93094674 1.8812418 0 1 C0 0.67 0 0.34 0 0 Z " fill="#6E5F43" transform="translate(94,45)"/>
<path d="M0 0 C21.78 0 43.56 0 66 0 C66 0.33 66 0.66 66 1 C50.16 1 34.32 1 18 1 C18.71092474 17.02100811 18.71092474 17.02100811 20 33 C21.65 30.36 23.3 27.72 25 25 C30.36071686 25.45949002 30.64675606 26.64675606 35 31 C35.33 23.08 35.66 15.16 36 7 C36.66 7 37.32 7 38 7 C38 9.97 38 12.94 38 16 C50.87 16 63.74 16 77 16 C75.02 12.7 73.04 9.4 71 6 C70.505 4.02 70.505 4.02 70 2 C73.77254215 3.25751405 74.17480476 4.49400825 76.125 7.875 C76.90230469 9.20144531 76.90230469 9.20144531 77.6953125 10.5546875 C79 13 79 13 80 16 C80.66 16 81.32 16 82 16 C82 16.66 82 17.32 82 18 C67.48 18 52.96 18 38 18 C38 24.27 38 30.54 38 37 C34.12884805 35.70961602 32.93449387 33.64698816 30.5 30.49609375 C28.99907929 28.64690787 28.99907929 28.64690787 26 29 C24.41310436 31.00393821 24.41310436 31.00393821 23 33.5 C21.5 36.03125 21.5 36.03125 20 38 C19.01 38 18.02 38 17 38 C16.82633841 36.54248309 16.6616016 35.08390329 16.5 33.625 C16.4071875 32.81289063 16.314375 32.00078125 16.21875 31.1640625 C15.9160613 26.78588671 16 22.38862663 16 18 C-3.47 18 -22.94 18 -43 18 C-43 17.01 -43 16.02 -43 15 C-23.53 15 -4.06 15 16 15 C15.01 8.565 15.01 8.565 14 2 C7.07 1.505 7.07 1.505 0 1 C0 0.67 0 0.34 0 0 Z " fill="#948441" transform="translate(129,224)"/>
<path d="M0 0 C0.99 1.485 0.99 1.485 2 3 C-0.7005383 5.7005383 -2.11493791 5.26738922 -5.89453125 5.30297852 C-7.76518501 5.32800949 -7.76518501 5.32800949 -9.67362976 5.35354614 C-11.05325227 5.36214564 -12.43287573 5.37059454 -13.8125 5.37890625 C-15.24344404 5.39474716 -16.67437803 5.41151929 -18.1053009 5.4291687 C-21.15290565 5.46510279 -24.20048993 5.49519691 -27.24819946 5.52072144 C-31.99333202 5.56086772 -36.73821456 5.61573416 -41.4831543 5.67407227 C-43.06346109 5.69336146 -44.6437681 5.71263333 -46.22407532 5.73188782 C-47.39398734 5.74616035 -47.39398734 5.74616035 -48.58753395 5.76072121 C-50.95032908 5.78907582 -53.31313487 5.81622905 -55.6759491 5.84294128 C-67.51636934 5.97694981 -79.35597735 6.13168942 -91.19458008 6.38375854 C-92.92400097 6.41926062 -94.65349981 6.45116854 -96.38305664 6.47927856 C-98.74132042 6.51781437 -101.09906098 6.56781415 -103.45703125 6.62109375 C-104.73553955 6.6461499 -106.01404785 6.67120605 -107.33129883 6.69702148 C-111.43906759 7.03626026 -115.03317217 7.90241857 -119 9 C-119.38800708 13.12319206 -119.38800708 13.12319206 -117.75 16.75 C-113.8373004 19.54478543 -110.95889991 20.25693718 -106.12988281 20.31884766 C-104.35849945 20.34865219 -104.35849945 20.34865219 -102.55133057 20.37905884 C-101.28142273 20.39061005 -100.01151489 20.40216125 -98.703125 20.4140625 C-97.39921814 20.43342865 -96.09531128 20.4527948 -94.75189209 20.4727478 C-91.29306064 20.52401083 -87.83419034 20.56366744 -84.37518311 20.60089111 C-80.84247268 20.64096753 -77.30992307 20.69204322 -73.77734375 20.7421875 C-66.85168009 20.83887755 -59.92591315 20.92330435 -53 21 C-53 21.33 -53 21.66 -53 22 C-61.1277674 22.09277517 -69.25531272 22.16380244 -77.38347912 22.20724869 C-81.15794293 22.22810327 -84.93204385 22.2563809 -88.70629883 22.30175781 C-92.3502845 22.3452932 -95.99392164 22.36915313 -99.63814735 22.37950897 C-101.02682289 22.38688669 -102.41547985 22.40129401 -103.80400658 22.42292023 C-105.75220431 22.45205017 -107.70075447 22.45363471 -109.64916992 22.45410156 C-110.7572551 22.46298401 -111.86534027 22.47186646 -113.00700378 22.48101807 C-116.69375322 21.88850376 -118.34428957 20.5711494 -121 18 C-122.59474241 14.81051517 -122.37691092 11.47042511 -122 8 C-120.9375 6.0625 -120.9375 6.0625 -119 5 C-113.11903075 3.9379421 -107.24565397 3.68586493 -101.28125 3.46484375 C-99.62095764 3.4022361 -99.62095764 3.4022361 -97.92712402 3.33836365 C-87.00537552 2.96767335 -76.08324651 2.85213891 -65.15625 2.75390625 C-64.24031067 2.74551098 -63.32437134 2.73711571 -62.38067627 2.72846603 C-53.79096137 2.65073876 -45.20120993 2.57971509 -36.61132812 2.52319336 C-31.86100124 2.49151117 -27.11083696 2.45033744 -22.36064148 2.40299797 C-20.56486371 2.38700052 -18.76904936 2.37466854 -16.97322083 2.36609077 C-14.49043891 2.3540103 -12.00804921 2.32991502 -9.52539062 2.30297852 C-8.41925415 2.3020948 -8.41925415 2.3020948 -7.29077148 2.30119324 C-3.19352743 2.36304334 -3.19352743 2.36304334 0 0 Z " fill="#716445" transform="translate(198,219)"/>
<path d="M0 0 C3.24807785 0.69554798 4.80411173 1.89740194 6.93359375 4.4140625 C8.06553613 8.30511444 8.36297549 10.4197048 6.74609375 14.1640625 C4.02375152 17.54352182 2.37589943 19.19925102 -2.00390625 19.8515625 C-5.77201583 19.31326113 -7.36484914 18.03843226 -10.06640625 15.4140625 C-11.68229004 12.18229493 -11.64092032 8.90790967 -11.06640625 5.4140625 C-8.03061205 0.8603712 -5.28244554 -0.37945734 0 0 Z " fill="#F2DF3B" transform="translate(140.06640625,94.5859375)"/>
<path d="M0 0 C2.9838283 1.98921886 4.60276841 3.38502568 5.4765625 6.9375 C5.75890933 10.86063492 5.21925086 12.67112371 3 16 C-0.33171835 18.22114557 -2.14102856 18.75150845 -6.06640625 18.484375 C-9.50163404 17.62383309 -10.98605167 15.80732192 -13 13 C-14.22011399 9.33965804 -14.35263082 7.77578781 -12.75 4.25 C-9.26150959 -0.23520196 -5.41400258 -1.0006425 0 0 Z " fill="#F5E23B" transform="translate(166,95)"/>
<path d="M0 0 C0.33 0 0.66 0 1 0 C1.70248273 10.6375957 2.15697141 21.27731137 2.3125 31.9375 C2.34214844 32.97326172 2.37179688 34.00902344 2.40234375 35.07617188 C2.45982328 42.31380219 2.45982328 42.31380219 0.22265625 45.65234375 C-2 47 -2 47 -5.875 47.625 C-8.98415443 48.2305282 -9.84509602 48.80391902 -11.8515625 51.34375 C-13.34039913 53.85572081 -14.72155541 56.37531451 -16 59 C-16.88336837 56.5332355 -17.1312406 55.36140628 -16.22265625 52.859375 C-15.1484375 50.90625 -14.07421875 48.953125 -13 47 C-13.90161865 47.00580078 -14.8032373 47.01160156 -15.73217773 47.01757812 C-29.84581948 47.07703239 -43.9522086 46.77679987 -58.0625 46.5 C-60.58658572 46.45167507 -63.11067424 46.40349689 -65.63476562 46.35546875 C-71.75654386 46.23866942 -77.87828499 46.12006485 -84 46 C-84 45.67 -84 45.34 -84 45 C-75.80140731 44.86811347 -67.60279387 44.73763257 -59.40415192 44.60884857 C-55.59543276 44.54897925 -51.7867219 44.48866167 -47.97802734 44.42724609 C-44.28865742 44.36777237 -40.59926924 44.30957209 -36.90986633 44.25218201 C-35.51637583 44.23029587 -34.12289194 44.20798373 -32.72941589 44.18519592 C-20.37881233 43.98372172 -20.37881233 43.98372172 -14.49389648 44.02172852 C-13.75522087 44.02579964 -13.01654526 44.02987076 -12.25548553 44.03406525 C-10.82814545 44.04373418 -9.40082673 44.05778483 -7.97357941 44.07671356 C-6.31556146 44.08809395 -4.65733276 44.04900125 -3 44 C-1.18884044 42.18884044 -1.61800552 39.38721773 -1.4375 36.9375 C-1.35371094 35.83277344 -1.26992187 34.72804687 -1.18359375 33.58984375 C-1.12300781 32.73519531 -1.06242187 31.88054687 -1 31 C-0.67 31 -0.34 31 0 31 C0 20.77 0 10.54 0 0 Z " fill="#7F7040" transform="translate(216,162)"/>
<path d="M0 0 C0.33 0 0.66 0 1 0 C1.7725741 4.16353318 2.16344593 8.1711099 2.28125 12.40234375 C2.31863281 13.62373047 2.35601562 14.84511719 2.39453125 16.10351562 C2.44673828 18.00133789 2.44673828 18.00133789 2.5 19.9375 C2.70849757 27.30827514 2.95035889 34.65726764 3.49609375 42.01171875 C4.14690152 51.2830127 4.31964572 60.56048475 4.50268555 69.85107422 C4.56226369 72.8630532 4.62739403 75.87487357 4.69335938 78.88671875 C4.9343288 90.25949626 5.06021169 101.62476948 5 113 C4.67 113 4.34 113 4 113 C0.97181293 75.42029589 -0.4913148 37.6989625 0 0 Z " fill="#5F5143" transform="translate(212,91)"/>
<path d="M0 0 C2.97 0 5.94 0 9 0 C11 2 11 2 11.0625 5.5625 C11.041875 6.696875 11.02125 7.83125 11 9 C11.33 9.33 11.66 9.66 12 10 C12.1875 12.9375 12.1875 12.9375 12 16 C10 18 10 18 7.6171875 18.1953125 C6.71226562 18.17210938 5.80734375 18.14890625 4.875 18.125 C3.26625 18.08375 1.6575 18.0425 0 18 C0 12.06 0 6.12 0 0 Z " fill="#8F852D" transform="translate(163,65)"/>
<path d="M0 0 C2.97 0 5.94 0 9 0 C11 2 11 2 11.0625 5.5625 C11.041875 6.696875 11.02125 7.83125 11 9 C11.33 9.33 11.66 9.66 12 10 C12.25 12.9375 12.25 12.9375 12 16 C9 18 9 18 0 18 C0 12.06 0 6.12 0 0 Z " fill="#A4972B" transform="translate(112,95)"/>
<path d="M0 0 C0.8559375 0.00902344 1.711875 0.01804687 2.59375 0.02734375 C3.2228125 0.03894531 3.851875 0.05054688 4.5 0.0625 C4.17 1.7125 3.84 3.3625 3.5 5.0625 C-4.26472771 7.19005215 -11.54177673 7.29836592 -19.5625 7.1875 C-20.80966797 7.17847656 -22.05683594 7.16945313 -23.34179688 7.16015625 C-26.39473504 7.13676209 -29.44726306 7.10398174 -32.5 7.0625 C-32.17 6.0725 -31.84 5.0825 -31.5 4.0625 C-32.82 3.4025 -34.14 2.7425 -35.5 2.0625 C-34.56317383 2.02491577 -34.56317383 2.02491577 -33.60742188 1.98657227 C-30.73812877 1.86949619 -27.86907575 1.74728249 -25 1.625 C-24.01773438 1.58568359 -23.03546875 1.54636719 -22.0234375 1.50585938 C-17.69872371 1.31845511 -13.4176787 1.10337026 -9.125 0.53125 C-6.02362544 0.13021019 -3.11963801 -0.04332831 0 0 Z " fill="#363630" transform="translate(163.5,270.9375)"/>
<path d="M0 0 C0.66 0 1.32 0 2 0 C3.36034252 5.83160424 3.25952072 11.64031762 3.29516602 17.60253906 C3.3067536 18.95453297 3.3273112 20.30647878 3.35668945 21.65820312 C3.39922496 23.61816336 3.41291007 25.57868301 3.42578125 27.5390625 C3.44036377 28.70646973 3.45494629 29.87387695 3.4699707 31.07666016 C3 34 3 34 1.16088867 35.90380859 C-1 37 -1 37 -4 37 C-3.67 35.95457031 -3.34 34.90914062 -3 33.83203125 C-1.49971476 27.83749366 -1.86357853 21.82305576 -2 15.6875 C-2.05094025 13.35825726 -2.0930332 11.02879914 -2.125 8.69921875 C-2.14820313 7.67658936 -2.17140625 6.65395996 -2.1953125 5.6003418 C-2 3 -2 3 0 0 Z " fill="#373631" transform="translate(268,128)"/>
<path d="M0 0 C3.77254215 1.25751405 4.17480476 2.49400825 6.125 5.875 C6.90230469 7.20144531 6.90230469 7.20144531 7.6953125 8.5546875 C9 11 9 11 10 14 C10.66 14 11.32 14 12 14 C12 14.66 12 15.32 12 16 C-2.52 16 -17.04 16 -32 16 C-32 22.27 -32 28.54 -32 35 C-32.99 34.67 -33.98 34.34 -35 34 C-35.495 32.515 -35.495 32.515 -36 31 C-35.01 31 -34.02 31 -33 31 C-33 22.42 -33 13.84 -33 5 C-32.67 5 -32.34 5 -32 5 C-32 7.97 -32 10.94 -32 14 C-19.13 14 -6.26 14 7 14 C5.02 10.7 3.04 7.4 1 4 C0.505 2.02 0.505 2.02 0 0 Z " fill="#7C6C46" transform="translate(199,226)"/>
<path d="M0 0 C0.80060349 0.00022659 1.60120697 0.00045319 2.42607117 0.00068665 C3.28553848 0.0161705 4.1450058 0.03165436 5.03051758 0.04760742 C6.35591301 0.05397469 6.35591301 0.05397469 7.70808411 0.06047058 C10.53071544 0.07726574 13.35263324 0.11491921 16.17504883 0.15307617 C18.08844998 0.16812194 20.00186231 0.18181053 21.9152832 0.1940918 C26.60631342 0.22717199 31.29681014 0.27895987 35.98754883 0.34057617 C35.98754883 0.67057617 35.98754883 1.00057617 35.98754883 1.34057617 C35.06006836 1.36039551 34.13258789 1.38021484 33.17700195 1.40063477 C29.70279856 1.47919934 26.22898926 1.56590616 22.75512695 1.65795898 C21.25780935 1.69600452 19.76040793 1.73089784 18.26293945 1.76245117 C16.09792316 1.80863819 13.93347196 1.86653634 11.76879883 1.92651367 C9.82070312 1.97364502 9.82070312 1.97364502 7.83325195 2.02172852 C3.65341376 2.36827935 0.02129435 3.22227124 -4.01245117 4.34057617 C-4.40045825 8.46376823 -4.40045825 8.46376823 -2.76245117 12.09057617 C1.15024843 14.8853616 4.02864892 15.59751335 8.85766602 15.65942383 C10.62904938 15.68922836 10.62904938 15.68922836 12.43621826 15.71963501 C13.7061261 15.73118622 14.97603394 15.74273743 16.28442383 15.75463867 C17.58833069 15.77400482 18.89223755 15.79337097 20.23565674 15.81332397 C23.69448819 15.86458701 27.15335849 15.90424361 30.61236572 15.94146729 C34.14507614 15.9815437 37.67762576 16.03261939 41.21020508 16.08276367 C48.13586874 16.17945372 55.06163568 16.26388052 61.98754883 16.34057617 C61.98754883 16.67057617 61.98754883 17.00057617 61.98754883 17.34057617 C53.85978143 17.43335134 45.73223611 17.50437861 37.60406971 17.54782486 C33.8296059 17.56867944 30.05550497 17.59695708 26.28125 17.64233398 C22.63726433 17.68586937 18.99362719 17.7097293 15.34940147 17.72008514 C13.96072594 17.72746286 12.57206898 17.74187018 11.18354225 17.7634964 C9.23534451 17.79262634 7.28679435 17.79421089 5.33837891 17.79467773 C4.23029373 17.80356018 3.12220856 17.81244263 1.98054504 17.82159424 C-1.70620439 17.22907993 -3.35674074 15.91172557 -6.01245117 13.34057617 C-7.57020053 10.22507745 -7.57725739 6.73613737 -7.01245117 3.34057617 C-4.83571186 0.5942062 -3.4724748 -0.03286254 0 0 Z " fill="#534647" transform="translate(83.012451171875,223.659423828125)"/>
<path d="M0 0 C4.22706923 6.34060384 4.2354184 13.58432038 4 21 C3.34 21 2.68 21 2 21 C0.90990042 24.27029875 0.91566656 26.5861668 0.97265625 30.0234375 C0.98490234 31.209375 0.99714844 32.3953125 1.00976562 33.6171875 C1.04481308 36.11464291 1.08385068 38.61204563 1.12695312 41.109375 C1.13791016 42.29789063 1.14886719 43.48640625 1.16015625 44.7109375 C1.17699463 45.79681152 1.19383301 46.88268555 1.21118164 48.00146484 C0.99521233 51.06797937 0.30002329 53.23324267 -1 56 C-2.14323637 52.3792847 -2.08385791 49.02909948 -2.02734375 45.25 C-2.01467747 43.90495068 -2.00231804 42.55989843 -1.99023438 41.21484375 C-1.96565906 39.11985893 -1.9379045 37.02503193 -1.90405273 34.93017578 C-1.77024644 26.07788824 -2.24672631 17.71255747 -4 9 C-4.33926283 7.00099729 -4.67410397 5.00122535 -5 3 C-3.68 3.99 -2.36 4.98 -1 6 C-0.67 4.02 -0.34 2.04 0 0 Z " fill="#4B4831" transform="translate(266,107)"/>
<path d="M0 0 C1.9375 1.0625 1.9375 1.0625 3 3 C3.5 6.5 3.5 6.5 3 10 C0.50960921 12.2057747 -1.32181823 12.86767185 -4.5625 13.5 C-7 13 -7 13 -9.375 10.8125 C-11 8 -11 8 -10.9375 5.375 C-8.70348032 -0.28451653 -5.95981446 -0.63855155 0 0 Z " fill="#CCBD35" transform="translate(91,88)"/>
<path d="M0 0 C2.3125 1.625 2.3125 1.625 4 4 C4.5 7.0625 4.5 7.0625 4 10 C1.781313 12.56002346 0.34812407 12.94923191 -3 13.4375 C-6 13 -6 13 -8.4375 11.375 C-10 9 -10 9 -10 5.9375 C-8.29052174 0.91590762 -5.27035799 -0.92231265 0 0 Z " fill="#CDBE37" transform="translate(90,118)"/>
<path d="M0 0 C3.29690593 0.76082445 4.48226263 1.81068444 6.4375 4.5625 C6.9375 7.625 6.9375 7.625 6.4375 10.5625 C4.18577097 13.16064888 2.78732295 13.51966454 -0.625 13.9375 C-3.5625 13.5625 -3.5625 13.5625 -5.375 12.375 C-6.97132057 9.93851071 -7.5625 8.50388968 -7.5625 5.5625 C-5.2721375 2.53113787 -3.76355394 0.82614599 0 0 Z " fill="#CCBC36" transform="translate(87.5625,163.4375)"/>
<path d="M0 0 C0.66 0.33 1.32 0.66 2 1 C2.88365827 3.65097482 3.18012105 5.44441095 3.31640625 8.18359375 C3.35846191 9.01834229 3.40051758 9.85309082 3.44384766 10.71313477 C3.48300293 11.61217529 3.5221582 12.51121582 3.5625 13.4375 C3.6042334 14.37327881 3.6459668 15.30905762 3.68896484 16.27319336 C4.35949648 32.56437538 3.96931779 48.72930847 3 65 C2.67 65 2.34 65 2 65 C1.58546168 56.67299756 1.17649758 48.34574839 0.77473354 40.01812077 C0.58802024 36.15166815 0.39935643 32.2853309 0.20629883 28.41918945 C0.02020971 24.69117887 -0.16083924 20.96295512 -0.33833122 17.23452568 C-0.40709273 15.80901677 -0.47769894 14.38359566 -0.55014229 12.95826912 C-0.65095952 10.96859291 -0.74472892 8.9785633 -0.83813477 6.98852539 C-0.89365005 5.85379288 -0.94916534 4.71906036 -1.00636292 3.54994202 C-1 1 -1 1 0 0 Z " fill="#796A41" transform="translate(209,46)"/>
<path d="M0 0 C1.20079193 0.03014442 1.20079193 0.03014442 2.42584229 0.06089783 C3.70730133 0.10145042 3.70730133 0.10145042 5.01464844 0.14282227 C5.89683044 0.16643326 6.77901245 0.19004425 7.68792725 0.21437073 C10.50013052 0.29082348 13.31204558 0.37492682 16.12402344 0.45922852 C18.03286359 0.51246761 19.94171773 0.56520789 21.85058594 0.61743164 C26.52524694 0.74641372 31.19966412 0.88225677 35.87402344 1.02172852 C35.87402344 1.35172852 35.87402344 1.68172852 35.87402344 2.02172852 C34.84631836 2.04154785 33.81861328 2.06136719 32.75976562 2.08178711 C28.8904055 2.15874922 25.02137795 2.24731394 21.15234375 2.33911133 C19.48834879 2.37703165 17.8242821 2.41194357 16.16015625 2.44360352 C-3.83314457 2.254777 -3.83314457 2.254777 -21.12597656 11.02172852 C-22.11597656 12.50672852 -22.11597656 12.50672852 -23.12597656 14.02172852 C-23.78597656 14.02172852 -24.44597656 14.02172852 -25.12597656 14.02172852 C-23.77994122 9.31060482 -21.23561573 6.54138044 -17.12597656 4.02172852 C-14.18182216 2.78691852 -11.20683108 1.85075846 -8.12597656 1.02172852 C-7.50676331 0.84525284 -6.88755005 0.66877716 -6.24957275 0.48695374 C-4.06941371 0.00933705 -2.22697368 -0.06342647 0 0 Z " fill="#71623E" transform="translate(96.1259765625,205.978271484375)"/>
<path d="M0 0 C1.34780648 -0.02795459 2.69562462 -0.05535605 4.04345703 -0.08203125 C5.15519287 -0.11232422 6.26692871 -0.14261719 7.41235352 -0.17382812 C10.17236328 0.13671875 10.17236328 0.13671875 14.17236328 3.13671875 C-8.59763672 2.80671875 -31.36763672 2.47671875 -54.82763672 2.13671875 C-54.82763672 1.80671875 -54.82763672 1.47671875 -54.82763672 1.13671875 C-47.98157135 0.99210772 -41.13545745 0.84998004 -34.28930664 0.70947266 C-31.96670399 0.66152423 -29.64411244 0.61303458 -27.3215332 0.56396484 C-20.77400569 0.4258254 -14.22647113 0.30066865 -7.67840576 0.19091797 C-5.11824444 0.14224382 -2.55950956 0.07453364 0 0 Z " fill="#908145" transform="translate(186.82763671875,205.86328125)"/>
<path d="M0 0 C0.33 0 0.66 0 1 0 C1 2.97 1 5.94 1 9 C13.87 9 26.74 9 40 9 C40 9.33 40 9.66 40 10 C21.19 10.495 21.19 10.495 2 11 C1.67 17.27 1.34 23.54 1 30 C0.01 29.67 -0.98 29.34 -2 29 C-2.33 28.01 -2.66 27.02 -3 26 C-2.01 26 -1.02 26 0 26 C0 17.42 0 8.84 0 0 Z " fill="#53464A" transform="translate(166,231)"/>
<path d="M0 0 C-0.51482919 5.852795 -1.45357192 11.3297637 -3 17 C-3.268125 16.360625 -3.53625 15.72125 -3.8125 15.0625 C-4.88667752 12.66868314 -4.88667752 12.66868314 -8 12 C-7.67 8.37 -7.34 4.74 -7 1 C-1.125 0 -1.125 0 0 0 Z " fill="#474530" transform="translate(270,163)"/>
<path d="M0 0 C0.33 0 0.66 0 1 0 C1.25 7.625 1.25 7.625 -1 11 C-3.625 11.6875 -3.625 11.6875 -6 12 C-6.66 13.98 -7.32 15.96 -8 18 C-9.49828872 14.11764181 -8.43110582 11.56550712 -7.0625 7.75 C-6.68222656 6.67234375 -6.30195313 5.5946875 -5.91015625 4.484375 C-5.45962891 3.25460938 -5.45962891 3.25460938 -5 2 C-4.01 2 -3.02 2 -2 2 C-1.34 1.34 -0.68 0.68 0 0 Z " fill="#504D31" transform="translate(21,95)"/>
<path d="M0 0 C0.66 0 1.32 0 2 0 C2.33 2.31 2.66 4.62 3 7 C3.99 7 4.98 7 6 7 C11 12.34883721 11 12.34883721 11 15 C11.66 15 12.32 15 13 15 C13 15.66 13 16.32 13 17 C12.01 17 11.02 17 10 17 C5 11.65116279 5 11.65116279 5 9 C4.01 9 3.02 9 2 9 C2 11.64 2 14.28 2 17 C1.34 17 0.68 17 0 17 C0 11.39 0 5.78 0 0 Z " fill="#383411" transform="translate(176,96)"/>
<path d="M0 0 C0.99 0 1.98 0 3 0 C3 2.31 3 4.62 3 7 C4.65 7 6.3 7 8 7 C8 7.33 8 7.66 8 8 C6.35 8 4.7 8 3 8 C3 10.64 3 13.28 3 16 C5.31 16 7.62 16 10 16 C10 16.33 10 16.66 10 17 C6.7 17 3.4 17 0 17 C0 11.39 0 5.78 0 0 Z " fill="#5A531B" transform="translate(149,66)"/>
<path d="M0 0 C2.125 0.375 2.125 0.375 4 1 C4.33 2.65 4.66 4.3 5 6 C6.65 6 8.3 6 10 6 C10 6.66 10 7.32 10 8 C6.04 8 2.08 8 -2 8 C-2 2 -2 2 0 0 Z " fill="#90862D" transform="translate(83,180)"/>
<path d="M0 0 C0.33 0 0.66 0 1 0 C2.03330247 12.01214121 2.11317227 23.94976471 2 36 C1.67 36 1.34 36 1 36 C0.67 34.35 0.34 32.7 0 31 C-0.33 31 -0.66 31 -1 31 C-1.1132812 20.60330359 -0.91987611 10.36503256 0 0 Z " fill="#7E6F43" transform="translate(214,126)"/>
<path d="M0 0 C-1 2 -1 2 -2.85546875 2.67578125 C-4.00982422 2.99095703 -4.00982422 2.99095703 -5.1875 3.3125 C-12.31506163 5.57521798 -16.18117011 9.68424287 -20 16 C-20.60546875 14.2109375 -20.60546875 14.2109375 -21 12 C-17.61713284 5.23426568 -8.05621524 -3.24566945 0 0 Z " fill="#756843" transform="translate(93,47)"/>
<path d="M0 0 C5.61 0 11.22 0 17 0 C17.69587639 8.69845487 18.14381869 17.27499972 18 26 C17.67 26 17.34 26 17 26 C16.01 18.08 15.02 10.16 14 2 C7.07 1.505 7.07 1.505 0 1 C0 0.67 0 0.34 0 0 Z " fill="#6B5E46" transform="translate(129,224)"/>
<path d="M0 0 C0 3 0 3 -2 6 C-0.35 5.67 1.3 5.34 3 5 C-0.19668988 7.6486859 -3.39486597 9.93992341 -7 12 C-6.67 10.35 -6.34 8.7 -6 7 C-7.65 7.33 -9.3 7.66 -11 8 C-7.72291137 4.32966073 -4.28477792 2.30718811 0 0 Z " fill="#454330" transform="translate(74,27)"/>
<path d="M0 0 C0.0825 0.61875 0.165 1.2375 0.25 1.875 C0.81258459 4.18437567 0.81258459 4.18437567 3.0625 5.25 C3.701875 5.4975 4.34125 5.745 5 6 C3.25 11.75 3.25 11.75 1 14 C1 13.34 1 12.68 1 12 C-0.65 12 -2.3 12 -4 12 C-2.66666667 8 -1.33333333 4 0 0 Z " fill="#494730" transform="translate(258,186)"/>
<path d="M0 0 C1.99954746 -0.04254356 4.00041636 -0.04080783 6 0 C7 1 7 1 7.0625 4.0625 C7.041875 5.031875 7.02125 6.00125 7 7 C4.69 7.33 2.38 7.66 0 8 C0 5.36 0 2.72 0 0 Z " fill="#F7E53F" transform="translate(166,74)"/>
<path d="M0 0 C0.33 0 0.66 0 1 0 C1 8.58 1 17.16 1 26 C-4.68088674 24.86382265 -5.90204811 23.71674706 -10 20 C-8.3125 19.1875 -8.3125 19.1875 -6 19 C-4.35 20.65 -2.7 22.3 -1 24 C-0.67 16.08 -0.34 8.16 0 0 Z " fill="#887950" transform="translate(165,231)"/>
<path d="M0 0 C1.65 0.33 3.3 0.66 5 1 C5.125 7.75 5.125 7.75 4 10 C1 9 1 9 -0.25 7.25 C-1.17574966 4.47275102 -0.77341204 2.78428335 0 0 Z " fill="#353430" transform="translate(261,103)"/>
<path d="M0 0 C0.33 0 0.66 0 1 0 C1.53293835 1.74635165 2.05090663 3.49727652 2.5625 5.25 C2.85253906 6.22453125 3.14257812 7.1990625 3.44140625 8.203125 C3.99249836 10.96243932 3.93789609 12.3912824 3 15 C2.34 13.35 1.68 11.7 1 10 C-0.32 10.99 -1.64 11.98 -3 13 C-5.09230769 8.56923077 -5.09230769 8.56923077 -4.625 5.6875 C-4.41875 5.130625 -4.2125 4.57375 -4 4 C-4 4.66 -4 5.32 -4 6 C-2.02 6.495 -2.02 6.495 0 7 C0 4.69 0 2.38 0 0 Z " fill="#5C5730" transform="translate(17,170)"/>
<path d="M0 0 C1.98 0.66 3.96 1.32 6 2 C6.1875 4.375 6.1875 4.375 6 7 C3 9 3 9 0 9 C0 6.03 0 3.06 0 0 Z " fill="#F8E53B" transform="translate(116,103)"/>
<path d="M0 0 C0.66 0.33 1.32 0.66 2 1 C2 1.66 2 2.32 2 3 C1.01 3.495 1.01 3.495 0 4 C-0.41262052 8.16992206 -0.41262052 8.16992206 1.375 11.75 C1.91125 12.1625 2.4475 12.575 3 13 C5 15 5 15 5 17 C2.29497597 16.12269491 0.31599994 15.28331029 -1.8125 13.375 C-3.64350721 9.71298558 -3.38880507 7.08245328 -3 3 C-1.5 1 -1.5 1 0 0 Z " fill="#685B43" transform="translate(79,224)"/>
<path d="M0 0 C0.3125 2.25 0.3125 2.25 0 5 C-2.5 7.3125 -2.5 7.3125 -5 9 C-7.475 8.01 -7.475 8.01 -10 7 C-8.66666667 5.66666667 -7.33333333 4.33333333 -6 3 C-5.484375 2.4225 -4.96875 1.845 -4.4375 1.25 C-3 0 -3 0 0 0 Z " fill="#3B3A32" transform="translate(49,51)"/>
<path d="M0 0 C3.77254215 1.25751405 4.17480476 2.49400825 6.125 5.875 C6.64320313 6.75929687 7.16140625 7.64359375 7.6953125 8.5546875 C9 11 9 11 10 14 C10.66 14.33 11.32 14.66 12 15 C10.35 15 8.7 15 7 15 C6.01515892 13.25318707 5.03733813 11.5024149 4.0625 9.75 C3.51722656 8.77546875 2.97195312 7.8009375 2.41015625 6.796875 C1.23389165 4.46389591 0.47898309 2.54649238 0 0 Z " fill="#6A5E43" transform="translate(199,226)"/>
<path d="M0 0 C0.99 0 1.98 0 3 0 C4.32 5.61 5.64 11.22 7 17 C6.01 16.67 5.02 16.34 4 16 C3.11917378 13.28681956 2.42123771 10.71116483 1.8125 7.9375 C1.63525391 7.17888672 1.45800781 6.42027344 1.27539062 5.63867188 C0.83863033 3.76178303 0.41780844 1.8811984 0 0 Z " fill="#2E2B11" transform="translate(133,66)"/>
<path d="M0 0 C1.3096875 -0.01675781 2.619375 -0.03351563 3.96875 -0.05078125 C7.57443813 0.32015791 8.9401314 0.837525 11.5 3.3125 C-4.24487472 3.49701025 -4.24487472 3.49701025 -11.5 2.3125 C-7.75963455 -0.0824789 -4.36472395 0.01288796 0 0 Z " fill="#85763C" transform="translate(189.5,205.6875)"/>
<path d="M0 0 C0.99 0 1.98 0 3 0 C4.32 5.61 5.64 11.22 7 17 C6.01 16.67 5.02 16.34 4 16 C3.11917378 13.28681956 2.42123771 10.71116483 1.8125 7.9375 C1.63525391 7.17888672 1.45800781 6.42027344 1.27539062 5.63867188 C0.83863033 3.76178303 0.41780844 1.8811984 0 0 Z " fill="#302D0F" transform="translate(126,66)"/>
<path d="M0 0 C0.33 1.32 0.66 2.64 1 4 C1.66 4 2.32 4 3 4 C2.625 5.9375 2.625 5.9375 2 8 C1.01 8.495 1.01 8.495 0 9 C-0.66 8.01 -1.32 7.02 -2 6 C-3.32 6.99 -4.64 7.98 -6 9 C-6.66 8.67 -7.32 8.34 -8 8 C-5.36 5.36 -2.72 2.72 0 0 Z " fill="#4D4A2F" transform="translate(49,46)"/>
<path d="M0 0 C1.875 0.3125 1.875 0.3125 4 1 C6.45416273 4.6812441 6.59384154 7.72261963 6 12 C4.5 14.5 4.5 14.5 3 16 C2.34 15.67 1.68 15.34 1 15 C1.33 14.46375 1.66 13.9275 2 13.375 C3.27648589 10.34334601 3.33356934 8.26897954 3 5 C1.61114752 2.18219466 1.61114752 2.18219466 0 0 Z " fill="#413C14" transform="translate(165,96)"/>
<path d="M0 0 C2.33028092 0.93211237 3.75891532 1.69003398 5.3125 3.6875 C6.3274792 7.10152095 5.8856963 9.58374286 5 13 C2.9375 14.4375 2.9375 14.4375 1 15 C1.33 14.01 1.66 13.02 2 12 C2.41570134 5.68196327 2.41570134 5.68196327 0 0 Z " fill="#34300F" transform="translate(142,96)"/>
<path d="M0 0 C0.99 0.33 1.98 0.66 3 1 C2.979375 2.134375 2.95875 3.26875 2.9375 4.4375 C2.58422523 7.81575674 2.58422523 7.81575674 4 9 C4.04080783 10.99958364 4.04254356 13.00045254 4 15 C2.68 15.33 1.36 15.66 0 16 C0.33 13.69 0.66 11.38 1 9 C0.34 8.67 -0.32 8.34 -1 8 C-1 7.34 -1 6.68 -1 6 C-0.34 6 0.32 6 1 6 C0.67 4.02 0.34 2.04 0 0 Z " fill="#3A3513" transform="translate(120,96)"/>
<path d="M0 0 C0.66 0.99 1.32 1.98 2 3 C-1.30040118 4.98974803 -3.60343095 5.18869828 -7.421875 4.9765625 C-8.44667969 4.925 -9.47148437 4.8734375 -10.52734375 4.8203125 C-12.12255859 4.72363281 -12.12255859 4.72363281 -13.75 4.625 C-15.36841797 4.53992188 -15.36841797 4.53992188 -17.01953125 4.453125 C-19.68037699 4.31184116 -22.34025231 4.16044734 -25 4 C-25 3.67 -25 3.34 -25 3 C-24.31373535 2.98018066 -23.6274707 2.96036133 -22.92041016 2.93994141 C-19.82154221 2.84489055 -16.72336706 2.73513153 -13.625 2.625 C-12.54476562 2.5940625 -11.46453125 2.563125 -10.3515625 2.53125 C-9.3203125 2.49257812 -8.2890625 2.45390625 -7.2265625 2.4140625 C-6.27346191 2.3826416 -5.32036133 2.3512207 -4.33837891 2.31884766 C-1.81104824 2.21444204 -1.81104824 2.21444204 0 0 Z " fill="#837545" transform="translate(198,219)"/>
<path d="M0 0 C0.66 0.33 1.32 0.66 2 1 C1.34 1.66 0.68 2.32 0 3 C-0.31923475 5.33560151 -0.31923475 5.33560151 -0.25 7.9375 C-0.25515625 8.81277344 -0.2603125 9.68804687 -0.265625 10.58984375 C-0.15833837 13.26105634 -0.15833837 13.26105634 2 16 C-0.33028092 15.06788763 -1.75891532 14.30996602 -3.3125 12.3125 C-4.31858949 8.92838082 -3.80442399 6.40333226 -3 3 C-1.4375 1.0625 -1.4375 1.0625 0 0 Z " fill="#3C3813" transform="translate(156,96)"/>
<path d="M0 0 C0.66 0 1.32 0 2 0 C1.67 0.99 1.34 1.98 1 3 C0.44846759 8.87954986 0.44846759 8.87954986 3 14 C3.66 14.66 4.32 15.32 5 16 C1.34683329 14.75023244 0.21934164 14.32901247 -2 11 C-2.265625 9.0625 -2.265625 9.0625 -2.25 7 C-2.25515625 6.319375 -2.2603125 5.63875 -2.265625 4.9375 C-2 3 -2 3 0 0 Z " fill="#474215" transform="translate(131,97)"/>
<path d="M0 0 C0.33 0 0.66 0 1 0 C1.33 4.62 1.66 9.24 2 14 C-1.97966457 15.98983228 -2.67675132 16.22400716 -6.75 15.625 C-7.54921875 15.51414063 -8.3484375 15.40328125 -9.171875 15.2890625 C-10.07679688 15.14597656 -10.07679688 15.14597656 -11 15 C-11 14.67 -11 14.34 -11 14 C-10.36191406 13.93941406 -9.72382813 13.87882813 -9.06640625 13.81640625 C-8.24011719 13.73261719 -7.41382813 13.64882812 -6.5625 13.5625 C-5.73878906 13.48128906 -4.91507813 13.40007812 -4.06640625 13.31640625 C-2.01337975 13.21069185 -2.01337975 13.21069185 -1 12 C-0.76572222 9.98405418 -0.58663876 7.961526 -0.4375 5.9375 C-0.35371094 4.83277344 -0.26992187 3.72804687 -0.18359375 2.58984375 C-0.12300781 1.73519531 -0.06242188 0.88054687 0 0 Z " fill="#7D6F40" transform="translate(215,193)"/>
<path d="M0 0 C3.3 0 6.6 0 10 0 C9.34 1.32 8.68 2.64 8 4 C8 4.33 8 4.66 8 5 C6.35 5 4.7 5 3 5 C2.67 4.01 2.34 3.02 2 2 C1.01 2 0.02 2 -1 2 C-0.67 1.34 -0.34 0.68 0 0 Z " fill="#323230" transform="translate(144,10)"/>
<path d="M0 0 C1.65 0 3.3 0 5 0 C4.67 1.98 4.34 3.96 4 6 C3.01 6 2.02 6 1 6 C0.34 5.34 -0.32 4.68 -1 4 C-0.625 1.875 -0.625 1.875 0 0 Z " fill="#373731" transform="translate(254,198)"/>
<path d="M0 0 C1.32 0 2.64 0 4 0 C3.67 2.31 3.34 4.62 3 7 C1.35 6.67 -0.3 6.34 -2 6 C-1.34 4.02 -0.68 2.04 0 0 Z " fill="#343430" transform="translate(260,185)"/>
<path d="M0 0 C-0.639375 0.103125 -1.27875 0.20625 -1.9375 0.3125 C-2.618125 0.539375 -3.29875 0.76625 -4 1 C-4.33 1.99 -4.66 2.98 -5 4 C-5.66 4 -6.32 4 -7 4 C-7 4.66 -7 5.32 -7 6 C-6.01 6.33 -5.02 6.66 -4 7 C-5.32 7 -6.64 7 -8 7 C-8.185625 6.071875 -8.185625 6.071875 -8.375 5.125 C-8.87197356 2.80879168 -8.87197356 2.80879168 -11 1 C-9.5437328 0.63743142 -8.08488815 0.28520207 -6.625 -0.0625 C-5.40683594 -0.35833984 -5.40683594 -0.35833984 -4.1640625 -0.66015625 C-2 -1 -2 -1 0 0 Z " fill="#524F30" transform="translate(175,269)"/>
<path d="M0 0 C1.32 0 2.64 0 4 0 C3.67 1.65 3.34 3.3 3 5 C1.02 5.33 -0.96 5.66 -3 6 C-2 4 -1 2 0 0 Z " fill="#343331" transform="translate(75,27)"/>
<path d="M0 0 C0.66 0.33 1.32 0.66 2 1 C1.67 8.26 1.34 15.52 1 23 C0.67 23 0.34 23 0 23 C-0.19588601 19.3545658 -0.38030536 15.7086421 -0.5625 12.0625 C-0.61857422 11.02158203 -0.67464844 9.98066406 -0.73242188 8.90820312 C-0.78076172 7.91884766 -0.82910156 6.92949219 -0.87890625 5.91015625 C-0.9260376 4.99371338 -0.97316895 4.07727051 -1.02172852 3.13305664 C-1 1 -1 1 0 0 Z " fill="#8A7C40" transform="translate(209,46)"/>
<path d="M0 0 C1.98 0 3.96 0 6 0 C6.33 1.65 6.66 3.3 7 5 C4.03 4.505 4.03 4.505 1 4 C0.67 2.68 0.34 1.36 0 0 Z " fill="#323231" transform="translate(172,15)"/>
<path d="M0 0 C0.99 0.33 1.98 0.66 3 1 C0.11658466 5.21422242 -2.04303419 6.76075855 -7 8 C-6.02133662 6.85373678 -5.04205413 5.70800212 -4.0625 4.5625 C-3.51722656 3.92441406 -2.97195312 3.28632813 -2.41015625 2.62890625 C-1.63204305 1.73008851 -0.84063472 0.84063472 0 0 Z " fill="#4B4831" transform="translate(228,235)"/>
<path d="M0 0 C1.65 1.65 3.3 3.3 5 5 C3.576875 5.2165625 3.576875 5.2165625 2.125 5.4375 C-0.8934494 5.82935399 -0.8934494 5.82935399 -3 7 C-1.125 1.125 -1.125 1.125 0 0 Z " fill="#4A482F" transform="translate(252,201)"/>
<path d="M0 0 C2.16874252 0.50603992 3.99967627 0.99983813 6 2 C6 2.66 6 3.32 6 4 C3.69 4 1.38 4 -1 4 C-0.67 2.68 -0.34 1.36 0 0 Z " fill="#F1DF3D" transform="translate(83,155)"/>
<path d="M0 0 C0.66 0.33 1.32 0.66 2 1 C1.2884375 1.5878125 1.2884375 1.5878125 0.5625 2.1875 C-1.35179633 4.40808374 -1.61266988 6.13375709 -2 9 C-2.33 7.68 -2.66 6.36 -3 5 C-4.32 4.67 -5.64 4.34 -7 4 C-1.7265625 0.77734375 -1.7265625 0.77734375 0 0 Z " fill="#4C4A31" transform="translate(82,22)"/>
<path d="M0 0 C0 0.33 0 0.66 0 1 C-1.79008467 1.22151549 -3.58218162 1.42682213 -5.375 1.625 C-6.37273437 1.74101562 -7.37046875 1.85703125 -8.3984375 1.9765625 C-9.25695312 1.98429688 -10.11546875 1.99203125 -11 2 C-11.66 1.34 -12.32 0.68 -13 0 C-8.38926889 -1.29676812 -4.66159911 -0.71109139 0 0 Z " fill="#7E713B" transform="translate(96,208)"/>
<path d="M0 0 C1.88391785 3.26545761 2.49287967 6.28111761 3 10 C2.01 9.67 1.02 9.34 0 9 C-1.125 3.375 -1.125 3.375 0 0 Z " fill="#3E3A11" transform="translate(137,73)"/>
<path d="M0 0 C1.09898702 3.29696105 0.87124444 4.40494903 0.0625 7.6875 C-0.22947266 8.89986328 -0.22947266 8.89986328 -0.52734375 10.13671875 C-0.68332031 10.75160156 -0.83929687 11.36648437 -1 12 C-2.4606285 9.35261084 -3 8.10551666 -3 5 C-1.42105263 1.42105263 -1.42105263 1.42105263 0 0 Z " fill="#504D30" transform="translate(18,110)"/>
<path d="M0 0 C0.66 0.99 1.32 1.98 2 3 C-0.97 5.475 -0.97 5.475 -4 8 C-4.66 7.67 -5.32 7.34 -6 7 C-4.02 4.69 -2.04 2.38 0 0 Z " fill="#4B4931" transform="translate(238,224)"/>
<path d="M0 0 C0.66 0.33 1.32 0.66 2 1 C2 1.66 2 2.32 2 3 C1.01 3.495 1.01 3.495 0 4 C-0.65555119 6.52733235 -0.65555119 6.52733235 -1 9 C-2.125 7.25 -2.125 7.25 -3 5 C-2.24307556 2.96212652 -1.53745581 1.53745581 0 0 Z " fill="#73653D" transform="translate(79,224)"/>
<path d="M0 0 C0.99 0.66 1.98 1.32 3 2 C3 2.66 3 3.32 3 4 C1.35 4.66 -0.3 5.32 -2 6 C-2 4.35 -2 2.7 -2 1 C-1.34 0.67 -0.68 0.34 0 0 Z " fill="#353431" transform="translate(25,200)"/>
<path d="M0 0 C1.9375 0.8125 1.9375 0.8125 4 2 C5.15941038 5.47823115 4.70820884 7.45895578 4 11 C3.67 11 3.34 11 3 11 C2.86722656 10.37351562 2.73445312 9.74703125 2.59765625 9.1015625 C2.42105469 8.28429687 2.24445313 7.46703125 2.0625 6.625 C1.80146484 5.40683594 1.80146484 5.40683594 1.53515625 4.1640625 C1.07669307 1.970537 1.07669307 1.970537 0 0 Z " fill="#4C4715" transform="translate(142,96)"/>
</svg>
